<svg width="232" height="24" viewBox="0 0 232 24" fill="none" xmlns="http://www.w3.org/2000/svg">
<rect width="40" height="24" rx="2" fill="white"/>
<path d="M7.58677 17.876H6.35477V17.15H9.70977V17.876H8.47777V21H7.58677V17.876ZM10.2992 17.15H11.1902V21H10.2992V17.15ZM15.1949 20.285V21H12.2139V17.15H15.1234V17.865H13.0994V18.701H14.8869V19.394H13.0994V20.285H15.1949ZM14.1444 16.8365L13.6714 16.523L13.1984 16.8365H12.5659L13.2974 16.2095H14.0454L14.7769 16.8365H14.1444ZM13.7979 15.643H14.6724L15.2774 16.3085H14.6614L13.7979 15.643ZM19.5448 17.15V21H18.8133L16.8938 18.6625V21H16.0138V17.15H16.7508L18.6648 19.4875V17.15H19.5448ZM25.7368 21L25.7313 18.69L24.5983 20.593H24.1968L23.0693 18.7395V21H22.2333V17.15H22.9703L24.4113 19.5425L25.8303 17.15H26.5618L26.5728 21H25.7368ZM30.1317 20.175H28.3442L28.0032 21H27.0902L28.8062 17.15H29.6862L31.4077 21H30.4727L30.1317 20.175ZM29.8512 19.4985L29.2407 18.0245L28.6302 19.4985H29.8512ZM29.2462 22.155C29.1362 22.155 29.0446 22.1202 28.9712 22.0505C28.9016 21.9845 28.8667 21.8965 28.8667 21.7865C28.8667 21.6765 28.9016 21.5848 28.9712 21.5115C29.0446 21.4382 29.1362 21.4015 29.2462 21.4015C29.3526 21.4015 29.4424 21.4382 29.5157 21.5115C29.5891 21.5848 29.6257 21.6765 29.6257 21.7865C29.6257 21.8965 29.5891 21.9845 29.5157 22.0505C29.4461 22.1202 29.3562 22.155 29.2462 22.155ZM29.2462 16.8805C28.9566 16.8805 28.7182 16.8053 28.5312 16.655C28.3442 16.5047 28.2452 16.3012 28.2342 16.0445H28.7732C28.7769 16.1618 28.8227 16.2572 28.9107 16.3305C29.0024 16.4002 29.1142 16.435 29.2462 16.435C29.3782 16.435 29.4882 16.4002 29.5762 16.3305C29.6679 16.2572 29.7156 16.1618 29.7192 16.0445H30.2582C30.2472 16.3012 30.1482 16.5047 29.9612 16.655C29.7742 16.8053 29.5359 16.8805 29.2462 16.8805ZM32.5213 17.876H31.2893V17.15H34.6443V17.876H33.4123V21H32.5213V17.876Z" fill="#333F48"/>
<path d="M24.1769 4.6815C24.1136 4.7013 24.0451 4.69516 23.9863 4.66443C23.9276 4.6337 23.8835 4.58089 23.8637 4.51762L23.7143 4.04053L20.6483 5.00009H24.8008L24.6543 4.53209L24.1769 4.6815Z" fill="#333F48"/>
<path d="M13.5 9.88091V7C13.5 6.9337 13.5263 6.87011 13.5732 6.82322C13.6201 6.77634 13.6837 6.75 13.75 6.75H14.25V6.25C14.25 6.1837 14.2763 6.12011 14.3232 6.07322C14.3701 6.02634 14.4337 6 14.5 6L25.5 6C25.5663 6 25.6299 6.02634 25.6768 6.07322C25.7237 6.12011 25.75 6.1837 25.75 6.25V6.75H26.25C26.3163 6.75 26.3799 6.77634 26.4268 6.82322C26.4737 6.87011 26.5 6.9337 26.5 7V10C26.5 10.0663 26.4737 10.1299 26.4268 10.1768C26.3799 10.2237 26.3163 10.25 26.25 10.25H25.75V10.75C25.75 10.8163 25.7237 10.8799 25.6768 10.9268C25.6299 10.9737 25.5663 11 25.5 11H17.1768L17 11.1278V11.5H27V5.5L13 5.5V10.4217C13.1419 10.22 13.31 10.0381 13.5 9.88091Z" fill="#333F48"/>
<path d="M17.301 5.00023H18.9754L23.8045 3.48882C23.8358 3.47901 23.8688 3.47547 23.9015 3.47839C23.9342 3.48132 23.966 3.49066 23.9951 3.50588C24.0242 3.52109 24.05 3.54189 24.071 3.56708C24.0921 3.59227 24.108 3.62137 24.1178 3.6527L24.2671 4.12979L24.7445 3.98038C24.8078 3.96058 24.8763 3.96673 24.9351 3.99746C24.9938 4.0282 25.038 4.08102 25.0578 4.14429L25.3258 5.00023H25.8496L25.0869 2.56348L17.301 5.00023Z" fill="#333F48"/>
<path d="M18.9132 9.74531L17.8687 10.5H25.25V10C25.25 9.9337 25.2763 9.87011 25.3232 9.82322C25.3701 9.77634 25.4337 9.75 25.5 9.75H26V7.25H25.5C25.4337 7.25 25.3701 7.22366 25.3232 7.17678C25.2763 7.12989 25.25 7.0663 25.25 7V6.5L14.75 6.5V7C14.75 7.0663 14.7237 7.12989 14.6768 7.17678C14.6299 7.22366 14.5663 7.25 14.5 7.25H14V9.55122C14.3656 9.36365 14.7688 9.26099 15.1796 9.25088L17.5102 7.67616C17.6981 7.54954 17.9168 7.47621 18.143 7.46396C18.3693 7.45172 18.5946 7.50102 18.7951 7.60663C18.974 7.36503 19.2214 7.18275 19.5051 7.08341C19.7888 6.98407 20.0959 6.97226 20.3864 7.0495C20.677 7.12675 20.9376 7.28948 21.1345 7.51662C21.3315 7.74375 21.4557 8.02481 21.491 8.32336C21.5263 8.62191 21.4711 8.92418 21.3325 9.19099C21.194 9.45779 20.9785 9.67683 20.714 9.81971C20.4495 9.96259 20.1482 10.0227 19.8491 9.9923C19.55 9.96189 19.267 9.84233 19.0366 9.64913C18.9975 9.68371 18.9563 9.71583 18.9132 9.74531Z" fill="#333F48"/>
<path d="M21.75 12.0002H16.75C16.6837 12.0002 16.6201 11.9738 16.5732 11.9269C16.5263 11.8801 16.5 11.8165 16.5 11.7502V11.0002C16.5 10.9606 16.5094 10.9216 16.5274 10.8864C16.5454 10.8512 16.5715 10.8207 16.6036 10.7975L18.6234 9.338C18.6256 9.33647 18.6277 9.33487 18.6299 9.33347C18.7132 9.27906 18.7848 9.20863 18.8406 9.12628C18.8964 9.04393 18.9352 8.9513 18.9549 8.85379C18.9746 8.75627 18.9746 8.65582 18.9551 8.55828C18.9356 8.46074 18.8968 8.36806 18.8411 8.28564C18.7854 8.20322 18.7139 8.1327 18.6307 8.07819C18.5475 8.02368 18.4542 7.98627 18.3564 7.96814C18.2586 7.95 18.1582 7.9515 18.061 7.97256C17.9637 7.99361 17.8717 8.0338 17.7901 8.09077L15.39 9.71247C15.3351 9.74956 15.2677 9.76335 15.2027 9.75081C14.6145 9.76387 14.0548 10.0065 13.6432 10.4268C13.2316 10.8472 13.0007 11.4119 13 12.0002V13.5002H18.75C18.8731 13.5 18.9943 13.4698 19.1029 13.4119L21.75 12.0002Z" fill="#333F48"/>
<path d="M19.9996 7.5C19.8391 7.49999 19.6808 7.53869 19.5384 7.61282C19.3959 7.68695 19.2734 7.79432 19.1813 7.92584C19.2037 7.95359 19.2252 7.98209 19.2454 8.01209C19.3671 8.19245 19.4396 8.40143 19.4557 8.61839C19.4719 8.83535 19.4312 9.05277 19.3376 9.24918C19.4589 9.3564 19.6044 9.43257 19.7616 9.47116C19.9188 9.50975 20.083 9.5096 20.2401 9.47073C20.3973 9.43186 20.5426 9.35543 20.6637 9.24799C20.7848 9.14056 20.878 9.00534 20.9353 8.85396C20.9926 8.70257 21.0122 8.53953 20.9926 8.37886C20.973 8.21818 20.9147 8.06467 20.8227 7.9315C20.7307 7.79834 20.6077 7.6895 20.4643 7.61434C20.321 7.53918 20.1615 7.49994 19.9996 7.5Z" fill="#333F48"/>
<rect x="48" width="40" height="24" rx="2" fill="white"/>
<path d="M59.5684 6.00073H62.4109C63.4577 5.98377 64.6066 6.25613 64.6066 7.52423C64.6066 8.06888 64.2831 8.51138 63.8066 8.74966C64.4532 8.93684 64.8535 9.49867 64.8535 10.188C64.8535 11.6348 63.7895 12.0772 62.4874 12.0772H59.5684V6.00073ZM61.1512 8.39227H62.3769C62.6491 8.39227 63.0236 8.24753 63.0236 7.81355C63.0236 7.37097 62.7086 7.22639 62.3769 7.22639H61.1512V8.39227ZM61.1512 10.8092H62.4194C62.9214 10.8092 63.2704 10.6306 63.2704 10.1284C63.2704 9.59223 62.8959 9.41349 62.4194 9.41349H61.1512V10.8092Z" fill="#333F48"/>
<path d="M67.3623 6.00098H68.9706L71.243 12.0775H69.5919L69.2175 10.9882H67.0984L66.7153 12.0775H65.0898L67.3623 6.00098ZM67.4643 9.81388H68.8429L68.1706 7.68625H68.1537L67.4643 9.81388Z" fill="#333F48"/>
<path d="M71.6875 6.00098H73.3132L75.4238 9.74566H75.4407V6.00098H76.9303V12.0775H75.3046L73.194 8.29045H73.1771V12.0775H71.6875V6.00098Z" fill="#333F48"/>
<path d="M78.0098 6.00098H79.5927V8.33297L81.5927 6.00098H83.5587L81.3118 8.39252L83.8396 12.0776H81.8737L80.2396 9.52456L79.5928 10.2054V12.0777H78.0098V6.00105L78.0098 6.00098Z" fill="#333F48"/>
<path d="M55.5868 14.2825H54.3383V17.5293H53.2484V14.2825H52V13.3447H55.5868V14.2825Z" fill="#333F48"/>
<path d="M56.0664 13.3438H58.1997C58.9382 13.3438 59.6648 13.6779 59.6648 14.5217C59.6648 14.973 59.4482 15.4008 59.0086 15.5709V15.5825C59.4539 15.6881 59.5827 16.1861 59.618 16.5847C59.6297 16.7605 59.6474 17.3758 59.7939 17.5284H58.7153C58.6216 17.3878 58.604 16.9775 58.5923 16.8603C58.5629 16.4383 58.4928 16.0047 57.9829 16.0047H57.1565V17.5284H56.0664V13.3438ZM57.1567 15.1605H58.0707C58.399 15.1605 58.5748 14.9847 58.5748 14.6683C58.5748 14.3578 58.3287 14.2169 58.024 14.2169H57.1567C57.1567 14.2169 57.1567 15.1605 57.1567 15.1605Z" fill="#333F48"/>
<path d="M61.436 13.3438H62.5437L64.1084 17.5283H62.9713L62.7137 16.778H61.2543L60.9907 17.5283H59.8711L61.436 13.3438ZM61.5064 15.9693H62.4559L61.9928 14.504H61.9811L61.5064 15.9693Z" fill="#333F48"/>
<path d="M64.4141 13.3438H65.5334L66.987 15.9225H66.9989V13.3438H68.0245V17.5283H66.9052L65.4514 14.9204H65.4397V17.5283H64.4141V13.3438Z" fill="#333F48"/>
<path d="M69.6175 16.1219C69.641 16.6142 69.9457 16.7723 70.4088 16.7723C70.7369 16.7723 71.0769 16.6552 71.0769 16.3446C71.0769 15.9754 70.479 15.905 69.8755 15.7349C69.2776 15.565 68.6505 15.2955 68.6505 14.5276C68.6505 13.6134 69.5707 13.2559 70.3561 13.2559C71.1883 13.2559 72.0263 13.6601 72.0322 14.6038H70.9421C70.9597 14.2228 70.6021 14.0998 70.2681 14.0998C70.0337 14.0998 69.7406 14.1817 69.7406 14.4573C69.7406 14.7796 70.3442 14.8382 70.9537 15.0082C71.5575 15.1782 72.167 15.4594 72.167 16.2154C72.167 17.2763 71.2643 17.6163 70.3443 17.6163C69.3831 17.6163 68.5335 17.1942 68.5273 16.1218H69.6175V16.1219Z" fill="#333F48"/>
<path d="M72.6777 13.3438H75.7606V14.2169H73.768V15.0727H75.491V15.9164H73.768V17.5283H72.6777V13.3438Z" fill="#333F48"/>
<path d="M76.2578 13.3438H79.5926V14.2169H77.3479V14.9496H79.3991V15.7935H77.3479V16.5906H79.6512V17.5282H76.2579L76.2578 13.3438Z" fill="#333F48"/>
<path d="M80.2734 13.3438H82.4067C83.1452 13.3438 83.8717 13.6779 83.8717 14.5217C83.8717 14.973 83.655 15.4008 83.2155 15.5709V15.5825C83.6608 15.6881 83.7898 16.1861 83.8249 16.5847C83.8368 16.7605 83.8542 17.3758 84.0008 17.5284H82.9223C82.8284 17.3878 82.8111 16.9775 82.7993 16.8603C82.77 16.4383 82.6997 16.0047 82.1898 16.0047H81.3636V17.5284H80.2734V13.3438ZM81.3636 15.1605H82.2779C82.606 15.1605 82.7817 14.9847 82.7817 14.6683C82.7817 14.3578 82.5358 14.2169 82.2309 14.2169H81.3636V15.1605Z" fill="#333F48"/>
<path d="M58.5979 6H52V7.32123H58.5979V6Z" fill="#D92B2B"/>
<path d="M58.5979 10.7563H52V12.0775H58.5979V10.7563Z" fill="#D92B2B"/>
<path d="M58.5979 8.37793H52V9.69916H58.5979V8.37793Z" fill="#D92B2B"/>
<rect x="96" width="40" height="24" rx="2" fill="white"/>
<path fill-rule="evenodd" clip-rule="evenodd" d="M118.837 8.14503C119.524 7.98857 120.243 7.96279 120.943 8.04802C121.395 8.10384 121.839 8.21252 122.266 8.35797C122.135 8.9275 122.004 9.49702 121.872 10.0663C121.332 9.83625 120.743 9.70271 120.149 9.68639C119.85 9.68004 119.545 9.69727 119.263 9.79493C119.093 9.85412 118.93 9.94635 118.82 10.0834C118.728 10.1971 118.681 10.3471 118.717 10.4878C118.748 10.6146 118.839 10.7207 118.94 10.8067C119.122 10.9565 119.335 11.0669 119.547 11.175C120.022 11.4119 120.514 11.6303 120.94 11.9417C121.304 12.2026 121.614 12.5474 121.753 12.9596C121.867 13.2855 121.872 13.636 121.819 13.9727C121.756 14.3741 121.585 14.7612 121.319 15.0836C121.007 15.4669 120.574 15.7541 120.103 15.9484C119.56 16.1739 118.967 16.2826 118.375 16.3189C117.708 16.3571 117.037 16.2993 116.383 16.1738C116.063 16.1085 115.744 16.0293 115.445 15.9034C115.581 15.3152 115.716 14.727 115.852 14.1388C116.127 14.2583 116.403 14.3761 116.694 14.4599C117.027 14.558 117.373 14.6157 117.721 14.637C118.039 14.6542 118.364 14.6597 118.676 14.5879C118.922 14.5322 119.17 14.4361 119.34 14.2554C119.504 14.084 119.55 13.8224 119.446 13.6135C119.362 13.4501 119.208 13.3311 119.051 13.2289C118.815 13.0771 118.556 12.9576 118.299 12.8393C117.79 12.6049 117.289 12.3275 116.906 11.9309C116.623 11.639 116.422 11.2697 116.382 10.8753C116.341 10.4565 116.425 10.0272 116.623 9.64896C116.772 9.36361 116.986 9.10961 117.24 8.89822C117.69 8.52247 118.254 8.28129 118.837 8.14503Z" fill="#243881"/>
<path fill-rule="evenodd" clip-rule="evenodd" d="M102.052 8.14934C103.314 8.14843 104.574 8.14908 105.835 8.14882C105.944 8.1483 106.053 8.15737 106.158 8.18521C106.381 8.2413 106.58 8.37121 106.714 8.54594C106.815 8.67521 106.88 8.8265 106.912 8.98283C107.118 9.99922 107.324 11.0156 107.53 12.032C107.639 12.565 107.743 13.0989 107.856 13.6314C108.635 11.8046 109.414 9.97707 110.191 8.14934C110.978 8.14778 111.764 8.14869 112.55 8.14882C111.337 10.8352 110.125 13.5219 108.911 16.2082C108.121 16.2082 107.331 16.2064 106.541 16.2091C105.949 14.0956 105.363 11.9808 104.774 9.86698C104.721 9.68538 104.679 9.49485 104.565 9.33618C104.446 9.17259 104.25 9.08179 104.065 8.99656C103.611 8.79567 103.129 8.65306 102.645 8.52898C102.431 8.47561 102.216 8.42665 102 8.38248C102.017 8.30464 102.036 8.22731 102.052 8.14934Z" fill="#192164"/>
<path fill-rule="evenodd" clip-rule="evenodd" d="M113.402 8.63284C113.44 8.47016 113.475 8.30683 113.515 8.14453C114.263 8.14686 115.011 8.1444 115.759 8.1457C115.139 10.8319 114.521 13.5184 113.902 16.2048C113.153 16.2054 112.405 16.2048 111.656 16.205C112.238 13.681 112.82 11.1569 113.402 8.63284Z" fill="#28327B"/>
<path fill-rule="evenodd" clip-rule="evenodd" d="M125.107 8.72927C125.256 8.39108 125.628 8.1512 126.023 8.14628C126.674 8.14304 127.325 8.14537 127.976 8.14498C128.581 10.8317 129.185 13.5186 129.789 16.2055C129.097 16.206 128.405 16.2054 127.712 16.2056C127.62 15.8047 127.531 15.4032 127.44 15.0021C126.48 15.0016 125.52 15.0022 124.561 15.0016C124.404 15.4023 124.247 15.8031 124.092 16.2045C123.306 16.2064 122.52 16.2054 121.734 16.2049C122.858 13.7129 123.982 11.2208 125.107 8.72927ZM125.207 13.348C125.827 13.3485 126.448 13.3482 127.068 13.3482C126.841 12.3408 126.615 11.3335 126.389 10.3262C125.993 11.3327 125.601 12.3408 125.207 13.348Z" fill="#344490"/>
<rect x="144" width="40" height="24" rx="2" fill="white"/>
<g opacity="0.01">
<rect x="152" y="4" width="24.1937" height="16" fill="white"/>
</g>
<rect x="160.906" y="6.78711" width="6.38125" height="10.425" fill="#F26122"/>
<path d="M161.594 11.9985C161.583 9.9695 162.505 8.04795 164.094 6.78604C161.375 4.6481 157.47 4.95855 155.123 7.49917C152.777 10.0398 152.777 13.9573 155.123 16.4979C157.47 19.0385 161.375 19.349 164.094 17.211C162.505 15.9491 161.583 14.0276 161.594 11.9985Z" fill="#EA1D25"/>
<path fill-rule="evenodd" clip-rule="evenodd" d="M174.182 15.8948V16.1073H174.144V15.8948H174.057V15.8511H174.275V15.8948H174.182ZM174.606 15.8511V16.1073H174.562V15.9136L174.494 16.0823H174.444L174.369 15.9136V16.1073H174.325V15.8511H174.387L174.469 16.0323L174.544 15.8511H174.606Z" fill="#F69E1E"/>
<path d="M174.819 11.9986C174.817 14.5357 173.368 16.8495 171.086 17.9585C168.804 19.0675 166.09 18.7774 164.094 17.2111C166.969 14.9473 167.467 10.7826 165.206 7.90487C164.882 7.48816 164.509 7.11248 164.094 6.78612C166.09 5.21986 168.804 4.92971 171.086 6.03873C173.368 7.14774 174.817 9.46153 174.819 11.9986Z" fill="#F69E1E"/>
<rect x="192" width="40" height="24" rx="2" fill="white"/>
<path fill-rule="evenodd" clip-rule="evenodd" d="M217.455 13.9534H219.031C219.076 13.9534 219.182 13.9384 219.227 13.9384C219.527 13.8784 219.782 13.6081 219.782 13.2328C219.782 12.8725 219.527 12.6023 219.227 12.5272C219.182 12.5122 219.091 12.5122 219.031 12.5122H217.455V13.9534Z" fill="url(#paint0_linear_7152_51274)"/>
<path fill-rule="evenodd" clip-rule="evenodd" d="M218.851 4C217.35 4 216.119 5.21603 216.119 6.73232V9.56973H219.977C220.067 9.56973 220.172 9.56973 220.247 9.58474C221.118 9.62978 221.763 10.0802 221.763 10.8608C221.763 11.4763 221.328 12.0018 220.517 12.1069V12.1369C221.403 12.197 222.079 12.6924 222.079 13.458C222.079 14.2837 221.328 14.8242 220.337 14.8242H216.104V20.3789H220.112C221.613 20.3789 222.844 19.1629 222.844 17.6466V4H218.851Z" fill="url(#paint1_linear_7152_51274)"/>
<path fill-rule="evenodd" clip-rule="evenodd" d="M219.587 11.0395C219.587 10.6792 219.332 10.439 219.031 10.3939C219.001 10.3939 218.926 10.3789 218.881 10.3789H217.455V11.7H218.881C218.926 11.7 219.016 11.7 219.031 11.685C219.332 11.64 219.587 11.3998 219.587 11.0395Z" fill="url(#paint2_linear_7152_51274)"/>
<path fill-rule="evenodd" clip-rule="evenodd" d="M203.747 4C202.246 4 201.015 5.21603 201.015 6.73232V13.473C201.781 13.8484 202.576 14.0886 203.372 14.0886C204.318 14.0886 204.828 13.5181 204.828 12.7374V9.55472H207.17V12.7224C207.17 13.9534 206.405 14.9593 203.807 14.9593C202.231 14.9593 201 14.614 201 14.614V20.3639H205.008C206.51 20.3639 207.741 19.1479 207.741 17.6316V4H203.747Z" fill="url(#paint3_linear_7152_51274)"/>
<path fill-rule="evenodd" clip-rule="evenodd" d="M211.299 4C209.797 4 208.566 5.21603 208.566 6.73232V10.3054C209.257 9.71986 210.458 9.34454 212.395 9.43461C213.431 9.47965 214.541 9.76489 214.541 9.76489V10.9209C213.986 10.6356 213.325 10.3804 212.47 10.3204C210.998 10.2153 210.113 10.9359 210.113 12.197C210.113 13.473 210.998 14.1937 212.47 14.0736C213.325 14.0135 213.986 13.7433 214.541 13.473V14.629C214.541 14.629 213.446 14.9143 212.395 14.9593C210.458 15.0494 209.257 14.6741 208.566 14.0886V20.3939H212.575C214.076 20.3939 215.307 19.1779 215.307 17.6616V4H211.299Z" fill="url(#paint4_linear_7152_51274)"/>
<defs>
<linearGradient id="paint0_linear_7152_51274" x1="216.116" y1="13.2343" x2="222.863" y2="13.2343" gradientUnits="userSpaceOnUse">
<stop stop-color="#007940"/>
<stop offset="0.2285" stop-color="#00873F"/>
<stop offset="0.7433" stop-color="#40A737"/>
<stop offset="1" stop-color="#5CB531"/>
</linearGradient>
<linearGradient id="paint1_linear_7152_51274" x1="216.116" y1="12.1826" x2="222.863" y2="12.1826" gradientUnits="userSpaceOnUse">
<stop stop-color="#007940"/>
<stop offset="0.2285" stop-color="#00873F"/>
<stop offset="0.7433" stop-color="#40A737"/>
<stop offset="1" stop-color="#5CB531"/>
</linearGradient>
<linearGradient id="paint2_linear_7152_51274" x1="216.116" y1="11.0372" x2="222.863" y2="11.0372" gradientUnits="userSpaceOnUse">
<stop stop-color="#007940"/>
<stop offset="0.2285" stop-color="#00873F"/>
<stop offset="0.7433" stop-color="#40A737"/>
<stop offset="1" stop-color="#5CB531"/>
</linearGradient>
<linearGradient id="paint3_linear_7152_51274" x1="201.012" y1="12.1826" x2="207.863" y2="12.1826" gradientUnits="userSpaceOnUse">
<stop stop-color="#1F286F"/>
<stop offset="0.4751" stop-color="#004E94"/>
<stop offset="0.8261" stop-color="#0066B1"/>
<stop offset="1" stop-color="#006FBC"/>
</linearGradient>
<linearGradient id="paint4_linear_7152_51274" x1="208.527" y1="12.1826" x2="215.181" y2="12.1826" gradientUnits="userSpaceOnUse">
<stop stop-color="#6C2C2F"/>
<stop offset="0.1735" stop-color="#882730"/>
<stop offset="0.5731" stop-color="#BE1833"/>
<stop offset="0.8585" stop-color="#DC0436"/>
<stop offset="1" stop-color="#E60039"/>
</linearGradient>
</defs>
</svg>
